# xmcd
# 
# Track frame offsets:
#     150
#     13975
#     27127
#     38761
#     49311
#     61240
#     74020
#     87458
#     97759
#     111072
#     122377
#     139624
#     156043
#     166673
#     176372
# 
# Disc length: 2472
# 
# Revision: 1
# Processed by: cddbd v1.5.2PL0 Copyright (c) Steve Scherf et al.
# Submitted via: fre:ac v1.1beta1pre5
# 
DISCID=b909a60f
DTITLE=Various Artist - The Ultimate Country Collection - CD06
DYEAR=2009
DGENRE=Country
TTITLE0=Brooks and Dunn - Little Miss Honky Tonk
TTITLE1=Collin Raye - My Kind Of Girl
TTITLE2=Porter Wagoner and Dolly Parton - The Last Thing On My Mind
TTITLE3=Lester Flatt and Earl Scruggs - Foggy Mountain Breakdown
TTITLE4=Bob Wills and His Texas Playboys - New San Antonio Rose
TTITLE5=Bobby Bare - Detroit City
TTITLE6=Claude King - Wolverton Mountain
TTITLE7=George Jones - I'm A One Woman Man
TTITLE8=Lynn Anderson - Rose Garden
TTITLE9=Marty Robbins - A White Sport Coat (And A Pink Carnation)
TTITLE10=Ray Price - You're The Best Thing That Ever Happened To Me
TTITLE11=Tracy Byrd - I'm From The Country
TTITLE12=Waylon Jennings - Only Daddy That'll Walk The Line
TTITLE13=Jeannie C Riley - The Girl Most Likely
TTITLE14=Jerry Lee Lewis - Jambalaya
EXTD=
EXTT0=
EXTT1=
EXTT2=
EXTT3=
EXTT4=
EXTT5=
EXTT6=
EXTT7=
EXTT8=
EXTT9=
EXTT10=
EXTT11=
EXTT12=
EXTT13=
EXTT14=
PLAYORDER=
